<svg xmlns="http://www.w3.org/2000/svg" width="1933.887" height="479.127" viewBox="0 0 1933.887 479.127">
  <path id="Subtraction_1" data-name="Subtraction 1" d="M2302.707,53.127H368.82c10.118-39.6,21.08-75.888,32.581-107.849,6.157-17.113,12.565-33.24,19.046-47.935,6.776-15.366,13.806-29.558,20.892-42.181a304.735,304.735,0,0,1,22.745-35.107,176.581,176.581,0,0,1,24.6-26.711,116.481,116.481,0,0,1,13-9.795,90.964,90.964,0,0,1,13.468-7.2,75.6,75.6,0,0,1,13.937-4.441A69.525,69.525,0,0,1,543.5-229.61a75.891,75.891,0,0,1,24.528,4.236,109.473,109.473,0,0,1,25.783,13.187,184.026,184.026,0,0,1,27.043,22.857,318.74,318.74,0,0,1,28.307,33.246A1385.127,1385.127,0,0,1,774.433-264c43.634-33.133,87.481-61.892,130.324-85.479,21.94-12.079,43.847-22.914,65.114-32.205a625.325,625.325,0,0,1,64.046-24.053,476.569,476.569,0,0,1,62.2-15.053c10.189-1.715,20.338-3.023,30.166-3.887,9.955-.875,19.851-1.319,29.413-1.319a295.8,295.8,0,0,1,31.068,1.608,262.412,262.412,0,0,1,29.934,4.914,239.641,239.641,0,0,1,28.674,8.358,227.463,227.463,0,0,1,27.29,11.939,225.837,225.837,0,0,1,25.781,15.657,235.361,235.361,0,0,1,24.148,19.512,257.266,257.266,0,0,1,22.391,23.5,292.929,292.929,0,0,1,20.509,27.634,56.86,56.86,0,0,0,8.239,10.02,42.023,42.023,0,0,0,9.1,6.637,39.577,39.577,0,0,0,9.884,3.674,47.826,47.826,0,0,0,10.584,1.131,70.827,70.827,0,0,0,13.6-1.424,125.536,125.536,0,0,0,14.355-3.778c9.791-3.139,19.807-7.278,30.411-11.66l2.868-1.184c11.2-4.621,22.177-9.048,33.251-12.406,12.515-3.795,23.394-5.64,33.258-5.64a69.322,69.322,0,0,1,18.376,2.385,63.788,63.788,0,0,1,17.715,7.977,80.862,80.862,0,0,1,16.814,14.808,130.028,130.028,0,0,1,15.673,22.875,230.589,230.589,0,0,1,14.293,32.179,411.468,411.468,0,0,1,12.672,42.72c3.981,16.355,7.619,34.69,10.812,54.5,3.307,20.512,6.239,43.226,8.713,67.512,13.326-8.208,26.757-15.987,39.917-23.121,12.985-7.039,26.075-13.65,38.907-19.649,12.648-5.913,25.4-11.4,37.892-16.3,12.314-4.829,24.72-9.224,36.874-13.064,11.976-3.784,24.038-7.132,35.849-9.951,11.642-2.779,23.357-5.12,34.821-6.959,11.3-1.812,22.666-3.188,33.788-4.088,10.957-.886,21.976-1.336,32.75-1.336,76.485,0,148.22,22.251,213.21,66.136a450.912,450.912,0,0,1,43.889,33.842,510.135,510.135,0,0,1,40.077,39.153c12.486,13.591,24.679,28.279,36.24,43.657,11.231,14.938,22.125,30.87,32.38,47.355h0Z" transform="translate(-368.82 426)" fill="#fefefe"/>
</svg>
